<svg version="1.2" xmlns="http://www.w3.org/2000/svg" viewBox="0 0 567 120" width="567" height="120"><style>.a{fill:#111}.b{fill:#ff7c00}</style><path class="a" d="m120.9 100h10.4v-84.5h-10.4zm54.7-54.8c10.7 0 19.9 6.7 19.8 19h-39.5c1.1-12.3 9.6-19 19.7-19zm29.2 35.5h-11.1c-2.3 6.7-8.3 11.5-17.6 11.5-10.6 0-19.6-6.9-20.4-19.6h50.1c0.2-2.2 0.3-4 0.3-6.3 0-17.1-11.9-29.9-30-29.9-18.3 0-31 12.5-31 32.2 0 19.9 13.2 32.4 31 32.4 15.5 0 25.5-8.9 28.7-20.3zm11.1-12.2c0 19.4 12.9 32.5 29.6 32.5 11.5 0 19.6-5.9 23.4-12.6v11.6h10.5v-62.6h-10.5v11.5c-3.7-6.6-11.6-12.5-23.3-12.5-16.8 0-29.7 12.6-29.7 32.1zm53 0.1c0 14.7-9.8 23.3-21.2 23.3-11.5 0-21.2-8.7-21.2-23.4 0-14.7 9.7-23.1 21.2-23.1 11.4 0 21.2 8.7 21.2 23.2zm38.5-2.6c0-14.5 7.5-19 17.5-19h2.7v-10.7c-9.9 0-16.7 4.3-20.2 11.3v-10.2h-10.4v62.6h10.4zm58.8-20.8c10.7 0 19.9 6.8 19.7 19h-39.5c1.2-12.2 9.6-19 19.8-19zm29.2 35.5h-11.2c-2.3 6.8-8.2 11.6-17.6 11.6-10.6 0-19.5-7-20.3-19.7h50c0.3-2.1 0.4-4 0.4-6.3 0-17.1-11.9-29.9-30.1-29.9-18.2 0-30.9 12.5-30.9 32.2 0 19.9 13.1 32.5 30.9 32.5 15.6 0 25.6-8.9 28.8-20.4zm11.1-12.2c0 19.4 12.9 32.6 29.7 32.6 11.4 0 19.5-5.9 23.3-12.8v11.7h10.5v-84.5h-10.5v33.1c-4.4-7.1-13.4-12.2-23.2-12.2-16.9 0-29.8 12.6-29.8 32.1zm53 0.1c0 14.8-9.8 23.3-21.3 23.3-11.4 0-21.1-8.7-21.1-23.4 0-14.7 9.7-23 21.1-23 11.5 0 21.3 8.6 21.3 23.1zm73 14.4c-0.4-22.4-36.7-14.3-36.7-29.1 0-5 4.5-8.7 12.2-8.7 8.3 0 13.1 4.6 13.6 10.9h10.4c-0.7-12.2-9.8-19.7-23.7-19.7-13.9 0-22.9 7.9-22.9 17.5 0 23.3 37 15.2 37 29.1 0 5.2-4.6 9.3-12.8 9.3-8.8 0-14.2-4.6-14.7-10.7h-10.8c0.7 11.5 11 19.5 25.6 19.5 13.8 0 22.8-7.8 22.8-18.1z"/><path class="a" d="m9.4 66.7c0 31.3 23 53.2 52.3 53.2 22.6 0 40.6-11.3 48.4-31.4h-16.3c-5.7 12.5-16.8 19.5-32.1 19.5-21.9 0-38.3-15.9-38.3-41.4 0-25.6 16.4-41.5 38.3-41.5 15.3 0 26.4 7 32.1 19.6h16.3c-7.8-20.2-25.8-31.6-48.4-31.6-29.3 0-52.3 22.2-52.3 53.5z"/><path class="b" d="m0.5 53.6c0 31.4 22.9 53.3 52.1 53.3 22.7 0 40.7-11.2 48.5-31.4h-16.4c-5.7 12.5-16.8 19.5-32.1 19.5-21.9 0-38.2-15.8-38.2-41.4 0-25.6 16.3-41.5 38.3-41.5 15.3 0 26.3 7.1 32.1 19.6h16.3c-7.8-20.2-25.8-31.6-48.5-31.6-29.2 0-52.1 22.2-52.1 53.5z"/></svg>